<?xml version="1.0" encoding="UTF-8" standalone="no"?>
<!-- Generator: Adobe Illustrator 16.0.0, SVG Export Plug-In . SVG Version: 6.00 Build 0)  -->

<svg
   xmlns:dc="http://purl.org/dc/elements/1.1/"
   xmlns:cc="http://creativecommons.org/ns#"
   xmlns:rdf="http://www.w3.org/1999/02/22-rdf-syntax-ns#"
   xmlns:svg="http://www.w3.org/2000/svg"
   xmlns="http://www.w3.org/2000/svg"
   xmlns:sodipodi="http://sodipodi.sourceforge.net/DTD/sodipodi-0.dtd"
   xmlns:inkscape="http://www.inkscape.org/namespaces/inkscape"
   version="1.1"
   id="root"
   x="0px"
   y="0px"
   width="1920px"
   height="1200px"
   viewBox="0 0 1920 1200"
   enable-background="new 0 0 1920 1200"
   xml:space="preserve"
   sodipodi:docname="background.svg"
   inkscape:version="0.48.5 r10040"><metadata
     id="metadata200"><rdf:RDF><cc:Work
         rdf:about=""><dc:format>image/svg+xml</dc:format><dc:type
           rdf:resource="http://purl.org/dc/dcmitype/StillImage" /><dc:title></dc:title></cc:Work></rdf:RDF></metadata><defs
     id="defs198"><clipPath
       id="clipPath3194"><path
         id="path3196"
         d="M 0,792 612,792 612,0 0,0 0,792 z" /></clipPath></defs><sodipodi:namedview
     pagecolor="#ffffff"
     bordercolor="#666666"
     borderopacity="1"
     objecttolerance="10"
     gridtolerance="10"
     guidetolerance="10"
     inkscape:pageopacity="0"
     inkscape:pageshadow="2"
     inkscape:window-width="1920"
     inkscape:window-height="1116"
     id="namedview196"
     showgrid="false"
     inkscape:zoom="0.65208333"
     inkscape:cx="833.40848"
     inkscape:cy="559.51206"
     inkscape:window-x="0"
     inkscape:window-y="31"
     inkscape:window-maximized="1"
     inkscape:current-layer="root"
     showguides="true"
     inkscape:guide-bbox="true" /><g
     id="background_1_"><linearGradient
       id="SVGID_1_"
       gradientUnits="userSpaceOnUse"
       x1="-825.8882"
       y1="2848.0264"
       x2="-825.8887"
       y2="1648.5905"
       gradientTransform="matrix(1 0 0 -1 1786.6797 2849.7949)"><stop
         offset="0"
         style="stop-color:#133356"
         id="stop2" /><stop
         offset="0.5025"
         style="stop-color:#7C9999"
         id="stop4" /><stop
         offset="1"
         style="stop-color:#333333"
         id="stop6" /></linearGradient><rect
       x="-0.709"
       y="-1.12"
       fill="url(#SVGID_1_)"
       width="1923"
       height="1201.678"
       id="rect9" /><g
       id="Layer_4"><radialGradient
         id="SVGID_2_"
         cx="-931.8779"
         cy="2065.2871"
         r="942.2239"
         gradientTransform="matrix(0.9956 0 0 -1.1116 1798.7788 2863.8552)"
         gradientUnits="userSpaceOnUse"><stop
           offset="0"
           style="stop-color:#E4C8A5;stop-opacity:0.5"
           id="stop11" /><stop
           offset="0.1429"
           style="stop-color:#AEAB93;stop-opacity:0.4372"
           id="stop13" /><stop
           offset="0.3797"
           style="stop-color:#587E77;stop-opacity:0.3331"
           id="stop15" /><stop
           offset="0.4877"
           style="stop-color:#366C6C;stop-opacity:0.2857"
           id="stop17" /></radialGradient><rect
         x="-0.709"
         y="0.001"
         fill="url(#SVGID_2_)"
         width="1923"
         height="1200.556"
         id="rect20" /></g></g><g
     id="glows"><radialGradient
       id="SVGID_3_"
       cx="-294.6523"
       cy="2257.2598"
       r="279.208"
       gradientTransform="matrix(1 0 0 -1 1786.6797 2849.7949)"
       gradientUnits="userSpaceOnUse"><stop
         offset="0"
         style="stop-color:#FFFCDD"
         id="stop24" /><stop
         offset="1"
         style="stop-color:#FEF9C8;stop-opacity:0"
         id="stop26" /></radialGradient><circle
       enable-background="new    "
       cx="1492.027"
       cy="592.535"
       r="279.208"
       id="circle29"
       fill="url(#SVGID_3_)"
       opacity="0.2" /><radialGradient
       id="SVGID_4_"
       cx="-449.7148"
       cy="2353.3467"
       r="221"
       gradientTransform="matrix(1 0 0 -1 1786.6797 2849.7949)"
       gradientUnits="userSpaceOnUse"><stop
         offset="0"
         style="stop-color:#99CCCC"
         id="stop31" /><stop
         offset="1"
         style="stop-color:#FEF9C8;stop-opacity:0"
         id="stop33" /></radialGradient><circle
       enable-background="new    "
       cx="1336.965"
       cy="496.448"
       r="221"
       id="circle36"
       fill="url(#SVGID_4_)"
       opacity="0.2" /><radialGradient
       id="SVGID_5_"
       cx="-1403.6396"
       cy="2391.3467"
       r="293.0009"
       gradientTransform="matrix(1 0 0 -1 1786.6797 2849.7949)"
       gradientUnits="userSpaceOnUse"><stop
         offset="0"
         style="stop-color:#FFFCDD"
         id="stop38" /><stop
         offset="1"
         style="stop-color:#FEF9C8;stop-opacity:0"
         id="stop40" /></radialGradient><circle
       enable-background="new    "
       cx="383.04"
       cy="458.448"
       r="293.001"
       id="circle43"
       fill="url(#SVGID_5_)"
       opacity="0.1" /><radialGradient
       id="SVGID_6_"
       cx="-1215.6387"
       cy="2202.3027"
       r="293.0009"
       gradientTransform="matrix(1 0 0 -1 1786.6797 2849.7949)"
       gradientUnits="userSpaceOnUse"><stop
         offset="0"
         style="stop-color:#FFFCDD"
         id="stop45" /><stop
         offset="1"
         style="stop-color:#FEF9C8;stop-opacity:0"
         id="stop47" /></radialGradient><circle
       enable-background="new    "
       cx="571.041"
       cy="647.492"
       r="293.001"
       id="circle50"
       fill="url(#SVGID_6_)"
       opacity="0.1" /><radialGradient
       id="SVGID_7_"
       cx="-1119.3047"
       cy="2109.4688"
       r="374.831"
       gradientTransform="matrix(1 0 0 -1 1786.6797 2849.7949)"
       gradientUnits="userSpaceOnUse"><stop
         offset="0"
         style="stop-color:#FFFCDD"
         id="stop52" /><stop
         offset="1"
         style="stop-color:#FEF9C8;stop-opacity:0"
         id="stop54" /></radialGradient><circle
       enable-background="new    "
       cx="667.375"
       cy="740.326"
       r="374.831"
       id="circle57"
       fill="url(#SVGID_7_)"
       opacity="0.1" /><radialGradient
       id="SVGID_8_"
       cx="-507.8096"
       cy="2187.2354"
       r="374.831"
       gradientTransform="matrix(1 0 0 -1 1786.6797 2849.7949)"
       gradientUnits="userSpaceOnUse"><stop
         offset="0"
         style="stop-color:#FFFCDD"
         id="stop59" /><stop
         offset="1"
         style="stop-color:#FEF9C8;stop-opacity:0"
         id="stop61" /></radialGradient><circle
       enable-background="new    "
       cx="1278.87"
       cy="662.56"
       r="374.831"
       id="circle64"
       fill="url(#SVGID_8_)"
       opacity="0.1" /><radialGradient
       id="SVGID_9_"
       cx="-1154.4512"
       cy="2337.2344"
       r="374.8305"
       gradientTransform="matrix(1 0 0 -1 1786.6797 2849.7949)"
       gradientUnits="userSpaceOnUse"><stop
         offset="0"
         style="stop-color:#99CCCC"
         id="stop66" /><stop
         offset="1"
         style="stop-color:#FEF9C8;stop-opacity:0"
         id="stop68" /></radialGradient><circle
       enable-background="new    "
       cx="632.229"
       cy="512.561"
       r="374.831"
       id="circle71"
       fill="url(#SVGID_9_)"
       opacity="0.2" /><radialGradient
       id="SVGID_10_"
       cx="-220.1504"
       cy="2319.2354"
       r="374.831"
       gradientTransform="matrix(1 0 0 -1 1786.6797 2849.7949)"
       gradientUnits="userSpaceOnUse"><stop
         offset="0"
         style="stop-color:#FFFCDD"
         id="stop73" /><stop
         offset="1"
         style="stop-color:#FEF9C8;stop-opacity:0"
         id="stop75" /></radialGradient><circle
       enable-background="new    "
       cx="1566.529"
       cy="530.56"
       r="374.831"
       id="circle78"
       fill="url(#SVGID_10_)"
       opacity="0.2" /><radialGradient
       id="SVGID_11_"
       cx="-329.9814"
       cy="2055.2363"
       r="374.8305"
       gradientTransform="matrix(1 0 0 -1 1786.6797 2849.7949)"
       gradientUnits="userSpaceOnUse"><stop
         offset="0"
         style="stop-color:#99CCCC"
         id="stop80" /><stop
         offset="1"
         style="stop-color:#FEF9C8;stop-opacity:0"
         id="stop82" /></radialGradient><circle
       enable-background="new    "
       cx="1456.698"
       cy="794.559"
       r="374.831"
       id="circle85"
       fill="url(#SVGID_11_)"
       opacity="0.2" /></g><g
     id="rounds"><path
       fill="none"
       stroke="#FFFFFF"
       stroke-width="2"
       stroke-miterlimit="10"
       d="M884.235,640.436"
       id="path88" /><circle
       opacity="0.5"
       fill="#FFFFFF"
       enable-background="new    "
       cx="1738.156"
       cy="514.037"
       r="12.067"
       id="circle90" /><circle
       opacity="0.9"
       fill="#FFFFFF"
       enable-background="new    "
       cx="1648.067"
       cy="300.526"
       r="12.068"
       id="circle92" /><circle
       opacity="0.1"
       fill="#FFFFFF"
       enable-background="new    "
       cx="1588.658"
       cy="922.525"
       r="12.069"
       id="circle94" /><circle
       opacity="0.3"
       fill="#FFFFFF"
       enable-background="new    "
       cx="1706.35"
       cy="733.197"
       r="12.069"
       id="circle96" /></g><g
     id="octopus_3_"><radialGradient
       id="SVGID_12_"
       cx="-2247.7603"
       cy="207.6665"
       r="741.6536"
       gradientTransform="matrix(1.4647 0.5424 -0.5668 1.7245 4557.8262 1323.4652)"
       gradientUnits="userSpaceOnUse"><stop
         offset="0"
         style="stop-color:#99CCCC"
         id="stop99" /><stop
         offset="1"
         style="stop-color:#FEF9C8;stop-opacity:0"
         id="stop101" /></radialGradient><path
       opacity="0.2"
       fill="url(#SVGID_12_)"
       enable-background="new    "
       d="M1504.219,263.019c0,0,59.685,205.863-35.25,365.762   c-160.481,270.287-369.311,245.661-655.083,46.047C310.327,323.073,171.64,584.74,165.694,616.811l-1.707-1.901   c5.949-32.076,133.185-354.088,636.752-2.331c285.761,199.617,494.587,224.244,655.071-46.044   C1550.748,406.627,1504.219,263.019,1504.219,263.019"
       id="path104" /><radialGradient
       id="SVGID_13_"
       cx="-2275.4883"
       cy="758.7002"
       r="637.2521"
       gradientTransform="matrix(1.4173 0.672 -0.6766 1.6781 4727.8745 942.1898)"
       gradientUnits="userSpaceOnUse"><stop
         offset="0"
         style="stop-color:#FFFCDD"
         id="stop106" /><stop
         offset="1"
         style="stop-color:#FEF9C8;stop-opacity:0"
         id="stop108" /></radialGradient><path
       opacity="0.1"
       fill="url(#SVGID_13_)"
       enable-background="new    "
       d="M1522.256,339.803c0,0,45.568,211.519-59.217,363.4   c-177.143,256.747-382.707,213.729-653.004-11.384C333.721,295.138,149.1,583.642,141.073,615.255l1.336,0.721   c1.676-59.132,182.389-384.368,658.698,12.315c270.3,225.113,475.854,268.121,653,11.382   C1558.901,487.787,1522.256,339.803,1522.256,339.803"
       id="path111" /><radialGradient
       id="SVGID_14_"
       cx="-2290.5596"
       cy="96.5254"
       r="238.7576"
       gradientTransform="matrix(1.4792 0.4962 -0.5276 1.7383 4506.6548 1460.1416)"
       gradientUnits="userSpaceOnUse"><stop
         offset="0"
         style="stop-color:#065E7F"
         id="stop113" /><stop
         offset="1"
         style="stop-color:#FEF9C8;stop-opacity:0"
         id="stop115" /></radialGradient><path
       opacity="0.5"
       fill="url(#SVGID_14_)"
       enable-background="new    "
       d="M1478.551,203.387c0,0,64.533,203.609-26.834,366.083   c-154.438,274.66-364.119,256.487-654.896,66.063c-12.755-8.355-570.774-489.246-663.819,85.565l11.638-125.419   c5.214-32.188,125.162-357.434,637.565-21.864c290.779,190.428,500.462,208.59,654.904-66.062   C1528.467,345.272,1478.551,203.387,1478.551,203.387"
       id="path118" /><linearGradient
       id="SVGID_15_"
       gradientUnits="userSpaceOnUse"
       x1="1455.8496"
       y1="-460.1348"
       x2="2716.0234"
       y2="-460.1348"
       gradientTransform="matrix(0.9907 -0.4864 0.4732 0.9638 -913.8179 2071.9731)"><stop
         offset="0"
         style="stop-color:#ABCCB3;stop-opacity:0.7"
         id="stop120" /><stop
         offset="0.33"
         style="stop-color:#B4CFB5;stop-opacity:0.05"
         id="stop122" /><stop
         offset="0.803"
         style="stop-color:#C1D4B7;stop-opacity:0.5"
         id="stop124" /><stop
         offset="1"
         style="stop-color:#FEF9C8;stop-opacity:0"
         id="stop126" /></linearGradient><path
       fill="url(#SVGID_15_)"
       d="M1623.155,437.662c0,0,29.559,144.122-93.468,270.521   c-222.135,249.115-496.84,98.147-706.964-83.662c-18.57-16.066-65.268-56.772-149.067-137.563   c-110.688-106.712-174.924-77.397-302.523,17.479c-192.702,154.713-232.417,38.069-235.847,27.112l-3.339,22.766   c3.427,10.956,43.147,127.603,235.848-27.112c120.033-93.972,199.952-96.273,286.375-16.218   c86.427,80.059,90.568,82.609,171.021,155.953c276.011,251.638,476.986,306.996,709.855,102.095   C1658.069,642.622,1623.155,437.662,1623.155,437.662"
       id="path129" /></g><g
     id="bubble"><radialGradient
       id="SVGID_16_"
       cx="119.8057"
       cy="1226.1953"
       r="70.5239"
       gradientTransform="matrix(2.398 0 0 -2.4744 -189.8192 4083.2085)"
       gradientUnits="userSpaceOnUse"><stop
         offset="0.0592"
         style="stop-color:#AEAB93;stop-opacity:0.4372"
         id="stop132" /><stop
         offset="0.5718"
         style="stop-color:#587E77;stop-opacity:0.3331"
         id="stop134" /><stop
         offset="1"
         style="stop-color:#366C6C;stop-opacity:0"
         id="stop136" /></radialGradient><ellipse
       cx="97.473"
       cy="1049.109"
       rx="169.118"
       ry="174.502"
       id="ellipse139"
       fill="url(#SVGID_16_)" /><radialGradient
       id="SVGID_17_"
       cx="74.792"
       cy="1211.7578"
       r="103.04"
       gradientTransform="matrix(2.398 0 0 -2.4744 -189.8192 4083.2085)"
       gradientUnits="userSpaceOnUse"><stop
         offset="3.896629e-004"
         style="stop-color:#587E77;stop-opacity:0.3331"
         id="stop141" /><stop
         offset="0.5616"
         style="stop-color:#AEAB93;stop-opacity:0.3"
         id="stop143" /><stop
         offset="1"
         style="stop-color:#366C6C;stop-opacity:0"
         id="stop145" /></radialGradient><path
       d="M-10.47,829.873c136.466,0,247.093,114.147,247.093,254.955   c0,140.813-110.626,254.963-247.093,254.963c-136.465,0-247.091-114.147-247.091-254.963   C-257.561,944.021-146.935,829.873-10.47,829.873z"
       id="path148"
       fill="url(#SVGID_17_)" /><radialGradient
       id="SVGID_18_"
       cx="551.8125"
       cy="1113.4512"
       r="103.0366"
       gradientTransform="matrix(3.1212 0 0 -3.2305 -1485.6934 4518.8154)"
       gradientUnits="userSpaceOnUse"><stop
         offset="3.896629e-004"
         style="stop-color:#587E77;stop-opacity:0.3331"
         id="stop150" /><stop
         offset="0.5468"
         style="stop-color:#AEAB93;stop-opacity:0.1"
         id="stop152" /><stop
         offset="0.67"
         style="stop-color:#366C6C;stop-opacity:0"
         id="stop154" /></radialGradient><path
       d="M236.623,588.955c177.612,0,321.599,149.021,321.599,332.854   c0,183.844-143.983,332.864-321.599,332.864S-84.979,1105.652-84.979,921.81C-84.978,737.978,59.008,588.955,236.623,588.955z"
       id="path157"
       fill="url(#SVGID_18_)" /><linearGradient
       id="SVGID_19_"
       gradientUnits="userSpaceOnUse"
       x1="400.127"
       y1="1420.1504"
       x2="512.1836"
       y2="1420.1504"
       gradientTransform="matrix(2.398 0 0 -2.4744 -189.8192 4083.2085)"><stop
         offset="0.5468"
         style="stop-color:#99CCCC;stop-opacity:0"
         id="stop159" /><stop
         offset="0.7931"
         style="stop-color:#C8E1CA;stop-opacity:0.8"
         id="stop161" /><stop
         offset="1"
         style="stop-color:#FEF9C8;stop-opacity:0"
         id="stop163" /></linearGradient><ellipse
       enable-background="new    "
       cx="904.039"
       cy="569.188"
       rx="134.355"
       ry="138.635"
       id="ellipse166"
       fill="url(#SVGID_19_)"
       opacity="0.1" /></g><g
     id="logoGroup_1_"
     opacity="0.8"><g
       id="logo_1_"
       enable-background="new    "><path
         d="M1228.652,411.082c-4.202,0.056,0.799,2.162,6.293,3.012c1.521-1.188,2.89-2.382,4.109-3.549    C1235.645,411.379,1232.165,411.402,1228.652,411.082"
         id="path169"
         fill="#FFFFFF" /><path
         d="M1251.229,405.455c2.513-3.467,4.334-7.244,4.981-11.156c-0.563,2.784-2.075,5.188-3.505,7.739    c-7.863,4.956-0.745-2.938-0.004-5.943C1244.251,406.741,1251.536,402.477,1251.229,405.455"
         id="path171"
         fill="#FFFFFF" /><path
         d="M1259.568,383.761c0.512-7.571-1.485-5.172-2.16-2.291    C1258.189,381.886,1258.811,386.815,1259.568,383.761"
         id="path173"
         fill="#FFFFFF" /><path
         d="M1212.697,280.219c2.249,0.405,4.854,0.711,4.479,1.253    C1219.639,280.922,1220.197,280.435,1212.697,280.219"
         id="path175"
         fill="#FFFFFF" /><path
         d="M1217.173,281.464l-1.575,0.332l1.479-0.139L1217.173,281.464"
         id="path177"
         fill="#FFFFFF" /><path
         d="M1287.198,386.638c0.251,6.8-1.992,10.104-4.02,15.951l-3.636,1.813c-2.979,5.777,0.298,3.671-1.842,8.265    c-4.646,4.13-14.096,12.925-17.107,13.729c-2.211-0.049,1.49-2.606,1.98-3.605c-6.227,4.271-4.994,6.409-14.506,9.009l-0.28-0.624    c-23.454,11.038-56.027-10.83-55.605-40.667c-0.246,1.896-0.711,1.424-1.229,2.187c-1.213-15.349,7.098-30.76,21.088-37.067    c13.688-6.772,29.743-4.005,39.541,5.151c-5.385-7.055-16.104-14.532-28.808-13.844c-12.447,0.204-24.096,8.117-27.981,16.7    c-6.377,4.018-7.119,15.474-9.896,17.573c-3.737,27.478,7.026,39.343,25.258,53.308c2.857,1.939,0.807,2.229,1.188,3.702    c-6.055-2.827-11.594-7.109-16.148-12.349c2.419,3.53,5.024,6.97,8.4,9.68c-5.714-1.931-13.343-13.832-15.563-14.314    c9.844,17.618,39.914,30.896,55.682,24.306c-7.296,0.271-16.556,0.152-24.743-2.879c-3.444-1.773-8.119-5.436-7.29-6.115    c21.507,8.026,43.706,6.076,62.311-8.836c4.73-3.686,9.904-9.953,11.396-10.04c-2.254,3.388,0.388,1.629-1.347,4.611    c4.709-7.603-2.051-3.098,4.87-13.125l2.563,3.515c-0.956-6.317,7.845-13.979,6.942-23.959c2.021-3.054,2.247,3.287,0.107,10.302    c2.975-7.791,0.791-9.039,1.549-15.474c0.813,2.163,1.904,4.463,2.461,6.737c-1.935-7.527,1.98-12.669,2.952-17.049    c-0.96-0.422-2.984,3.326-3.453-5.56c0.071-3.866,1.077-2.027,1.466-2.979c-0.752-0.438-2.738-3.4-3.949-9.077    c0.872-1.332,2.346,3.459,3.531,3.652c-0.76-4.51-2.084-7.955-2.146-11.42c-3.482-7.292-1.232,0.976-4.06-3.128    c-3.718-11.587,3.075-2.688,3.545-7.951c5.623,8.155,8.826,20.791,10.302,26.025c-1.128-6.38-2.938-12.563-5.161-18.548    c1.714,0.726-2.766-13.128,2.225-3.954c-5.317-19.554-22.746-37.825-38.776-46.395c1.954,1.792,4.438,4.046,3.551,4.401    c-7.979-4.739-6.578-5.116-7.721-7.124c-6.493-2.641-6.926,0.218-11.214,0.012c-12.247-6.5-14.604-5.809-25.877-9.88l0.506,2.407    c-8.104-2.709-9.448,1.01-18.222,0.007c-0.521-0.42,2.815-1.51,5.563-1.909c-7.841,1.038-7.472-1.548-15.146,0.289    c1.886-1.325,3.891-2.212,5.906-3.335c-6.393,0.392-15.271,3.721-12.531,0.683c-10.438,4.661-28.961,11.193-39.358,20.941    l-0.326-2.185c-4.761,5.723-20.771,17.078-22.051,24.497l-1.271,0.289c-2.479,4.2-4.089,8.957-6.052,13.271    c-3.245,5.529-4.756,2.13-4.293,2.995c-6.377,12.931-9.549,23.788-12.284,32.708c1.952,2.906,0.047,17.542,0.788,29.25    c-3.202,57.837,40.589,114.001,88.457,126.958c7.016,2.521,17.447,2.423,26.317,2.673c-10.468-2.99-11.821-1.586-22.021-5.146    c-7.354-3.464-8.973-7.412-14.184-11.941l2.063,3.645c-10.217-3.619-5.938-4.479-14.262-7.109l2.209-2.873    c-3.313-0.249-8.774-5.577-10.27-8.539l-3.63,0.146c-4.353-5.366-6.678-9.241-6.498-12.246l-1.178,2.091    c-1.327-2.272-16.02-20.15-8.396-15.989c-1.416-1.293-3.304-2.104-5.338-5.817l1.548-1.766    c-3.661-4.716-6.756-10.777-6.517-12.792c1.957,2.643,3.313,3.137,4.655,3.59c-9.261-22.984-9.78-1.262-16.8-23.393l1.489-0.119    c-1.141-1.727-1.833-3.573-2.746-5.402l0.646-6.434c-6.666-7.699-1.857-32.783-0.896-46.535    c0.666-5.594,5.563-11.549,9.293-20.887l-2.272-0.393c4.351-7.563,24.781-30.403,34.26-29.232c4.587-5.76-0.915-0.021-1.813-1.468    c10.081-10.426,13.244-7.362,20.044-9.247c7.331-4.345-6.29,1.703-2.813-1.649c12.677-3.239,8.98-7.359,25.52-9.003    c1.743,0.988-4.043,1.529-5.494,2.813c10.562-5.168,33.418-3.984,48.271,2.868c17.228,8.061,36.578,31.86,37.346,54.245    l0.869,0.23c-0.435,8.899,1.369,19.195-1.767,28.651L1287.198,386.638"
         id="path179"
         fill="#FFFFFF" /><path
         d="M1182.734,416.851l-0.596,2.95c2.764,3.756,4.96,7.833,8.489,10.753    C1188.089,425.609,1186.205,423.557,1182.734,416.851"
         id="path181"
         fill="#FFFFFF" /><path
         d="M1189.268,416.597c-1.468-1.613-2.331-3.564-3.307-5.504c0.932,3.411,2.834,6.34,4.599,9.327    L1189.268,416.597"
         id="path183"
         fill="#FFFFFF" /><path
         d="M1304.932,391.458l-0.604,1.553c-1.129,8.048-3.59,16.014-7.336,23.396    C1301.131,408.614,1303.798,400.094,1304.932,391.458"
         id="path185"
         fill="#FFFFFF" /><path
         d="M1213.533,278.199c2.842-1.036,6.988-0.57,10.014-1.258c-3.938,0.336-7.854,0.531-11.719,1.021    L1213.533,278.199"
         id="path187"
         fill="#FFFFFF" /><path
         d="M1113.665,331.303c0.657,6.064-4.562,8.419,1.15,4.416    C1117.886,328.812,1113.626,333.812,1113.665,331.303"
         id="path189"
         fill="#FFFFFF" /><path
         d="M1106.943,359.383c1.313-4.043,1.562-6.473,2.063-8.813    C1105.361,355.225,1107.323,356.215,1106.943,359.383"
         id="path191"
         fill="#FFFFFF" /></g></g><g
     id="layer1"
     transform="matrix(-4.5060291,-2.040294,-2.040294,4.5060291,3669.5862,165.67848)"><g
       id="g3190"
       transform="matrix(1.25,0,0,-1.25,140.50706,997.20182)"><g
         id="g3192"
         clip-path="url(#clipPath3194)"><g
           style="fill:#0f4d92;fill-opacity:1"
           id="g3817"><g
             style="fill:#0f4d92;fill-opacity:1"
             id="g3198"
             transform="translate(88.5767,565.2505)"><path
               style="fill:#0f4d92;fill-opacity:1;fill-rule:nonzero;stroke:none"
               id="path3200"
               d="m 0,0 c -3.278,0 -2.101,-6.139 -3.278,-11.765 -0.628,-2.996 6.541,0.326 9.232,4.73 C 6.501,-6.137 0,0 0,0"
               inkscape:connector-curvature="0" /></g><g
             style="fill:#0f4d92;fill-opacity:1"
             id="g3202"
             transform="translate(85.2983,544.126)"><path
               style="fill:#0f4d92;fill-opacity:1;fill-rule:nonzero;stroke:none"
               id="path3204"
               d="m 0,0 c 0,-8.152 -2.216,-13 -7.468,-21.161 -5.252,-8.16 -10.313,-12.488 -13.064,-16.304 -2.751,-3.816 -2.062,-4.856 1.719,-5.203 3.781,-0.348 6.018,-2.557 9.535,1.501 3.517,4.059 13.62,16.75 16.793,24.689 3.173,7.939 4.271,11.968 5.301,17.171 C 13.846,5.897 -2.311,0 -2.311,0"
               inkscape:connector-curvature="0" /></g><g
             style="fill:#0f4d92;fill-opacity:1"
             id="g3206"
             transform="translate(149.2495,571.2627)"><path
               style="fill:#0f4d92;fill-opacity:1;fill-rule:nonzero;stroke:none"
               id="path3208"
               d="m 0,0 c 3.235,2.521 6.237,-8.13 6.237,-10.345 0,-2.214 -11.898,-5.426 -18.411,-7.261 -6.513,-1.835 -29.464,-8.027 -38.961,-8.837 -7.695,-0.657 -13.302,-2.414 -16.885,-3.287 0,0 -3.094,-1.302 -7.219,-4.337 -6.414,-4.719 -14.783,-4.509 -8.939,2.082 5.844,6.59 0.344,4.163 8.939,8.499 8.594,4.336 18.221,7.886 20.282,10.101 0,0 8.328,5.723 17.083,4.109 C -34.81,-9.841 -5.378,-4.191 0,0"
               inkscape:connector-curvature="0" /></g></g><g
           id="g3226"
           transform="translate(155.3896,577.0244)"><path
             style="fill:#000000;fill-opacity:1;fill-rule:nonzero;stroke:none"
             id="path3228"
             d="m 0,0 c 7.699,6.348 -9.283,-1.388 -15.205,18.443 0,0 -3.223,12.488 -19.946,14.165 -11.886,1.193 -22.605,-6.07 -24.668,-7.631 -12.72877,-11.035309 -14.615789,-34.9577979 -0.009,-44.983 0,0 2.072,2.834 18.573,4.396 16.502,1.561 25.615,5.488 30.254,7.284 C -4.401,-5.77 -7.774,-6.409 0,0"
             inkscape:connector-curvature="0" /></g><g
           id="g3230"
           transform="translate(121.062,582.6494)"><path
             style="fill:#ffffff;fill-opacity:1;fill-rule:nonzero;stroke:none"
             id="path3232"
             d="m 0,0 c 0,-4.478 -3.598,-8.109 -8.036,-8.109 -4.438,0 -8.037,3.631 -8.037,8.109 0,4.479 3.599,8.109 8.037,8.109 C -3.598,8.109 0,4.479 0,0"
             inkscape:connector-curvature="0" /></g><g
           id="g3234"
           transform="translate(113.6572,583.9551)"><path
             style="fill:#000000;fill-opacity:1;fill-rule:nonzero;stroke:none"
             id="path3236"
             d="m 5.1266357,-0.92533413 c 0,-1.36199997 -1.158,-2.46599997 -2.5859999,-2.46599997 -1.4300003,0 -2.58700033,1.104 -2.58700033,2.46599997 0,1.36100016 1.15700003,2.46400003 2.58700033,2.46400003 1.4279999,0 2.5859999,-1.10299987 2.5859999,-2.46400003"
             inkscape:connector-curvature="0" /></g><g
           id="g3238"
           transform="translate(152.606,558.7939)"><path
             style="fill:#000000;fill-opacity:1;fill-rule:nonzero;stroke:none"
             id="path3240"
             d="M 0,0 C 1.201,0.638 10.213,-24.85 5.765,-43.141 2.583,-56.227 0.752,-61.683 -6.672,-68.433 c -2.157,-1.961 -2.44,-6.942 -2.44,-6.942 -17.761,-2.487 -23.952,-1.388 -35.01,-0.347 -11.058,1.041 -10.536,6.033 -13.808,7.285 -4.131,1.581 -6.536,-3.87 -17.189,-0.694 -15.127,4.509 -5.72,8.804 -3.782,10.809 22.523,23.284 24.409,44.347 24.409,44.347 C -38.949,-12.14 -6.569,-3.49 0,0"
             inkscape:connector-curvature="0" /></g><g
           id="g3242"
           transform="translate(152.606,558.7939)"><path
             style="fill:none;stroke:#020202;stroke-width:1;stroke-linecap:butt;stroke-linejoin:miter;stroke-miterlimit:4;stroke-dasharray:none;stroke-opacity:1"
             id="path3244"
             d="M 0,0 C 1.201,0.638 10.213,-24.85 5.765,-43.141 2.583,-56.227 0.752,-61.683 -6.672,-68.433 c -2.157,-1.961 -2.44,-6.942 -2.44,-6.942 -17.761,-2.487 -23.952,-1.388 -35.01,-0.347 -11.058,1.041 -10.536,6.033 -13.808,7.285 -4.131,1.581 -6.536,-3.87 -17.189,-0.694 -15.127,4.509 -5.72,8.804 -3.782,10.809 22.523,23.284 24.409,44.347 24.409,44.347 C -38.949,-12.14 -6.569,-3.49 0,0 Z"
             inkscape:connector-curvature="0" /></g><g
           id="g3266"
           transform="translate(118.3672,548.6357)"><path
             style="fill:#ffffff;fill-opacity:1;fill-rule:nonzero;stroke:none"
             id="path3268"
             d="m 0,0 c -23.981099,-37.053317 5.6991327,-50.382188 37.762,-41.356 0,0 4.588,13.131 3.408,25.051 C 38.989,5.724 33.378,10.06 33.378,10.06 27.317,7.34 0,0 0,0"
             inkscape:connector-curvature="0" /></g><g
           style="fill:#ffd700;fill-opacity:1"
           id="g3825"><g
             style="fill:#ffd700;fill-opacity:1"
             id="g3210"
             transform="translate(129.9634,554.499)"><path
               style="fill:#ffd700;fill-opacity:1;fill-rule:nonzero;stroke:none"
               id="path3212"
               d="m 0,0 -11.596,-1.7 v 9.237 l 9.092,1.597 z"
               inkscape:connector-curvature="0" /></g><g
             style="fill:#ffd700;fill-opacity:1"
             id="g3214"
             transform="translate(146.9312,558.7412)"><path
               style="fill:#ffd700;fill-opacity:1;fill-rule:nonzero;stroke:none"
               id="path3216"
               d="m 0,0 -8.938,-2.766 -2.906,9.515 7.348,2.492 z"
               inkscape:connector-curvature="0" /></g><g
             style="fill:#ffd700;fill-opacity:1"
             id="g3218"
             transform="translate(101.2075,548.6357)"><path
               style="fill:#ffd700;fill-opacity:1;fill-rule:nonzero;stroke:none"
               id="path3220"
               d="M 0,0 9.863,1.734 8.083,11.448 -0.319,10.06 Z"
               inkscape:connector-curvature="0" /></g><g
             style="fill:#ffd700;fill-opacity:1"
             id="g3222"
             transform="translate(153.8071,561.979)"><path
               style="fill:#ffd700;fill-opacity:1;fill-rule:nonzero;stroke:none"
               id="path3224"
               d="m 0,0 -3.438,-1.896 -3.438,9.88 2.013,1.292 z"
               inkscape:connector-curvature="0" /></g><g
             style="fill:#ffd700;fill-opacity:1"
             id="g3246"
             transform="translate(83.6748,551.3765)"><path
               style="fill:#ffd700;fill-opacity:1;fill-rule:nonzero;stroke:none"
               id="path3248"
               d="M 0,0 7.219,3.185 8.595,-4.412 -0.688,-7.25 Z"
               inkscape:connector-curvature="0" /></g><g
             style="fill:#ffd700;fill-opacity:1"
             id="g3250"
             transform="translate(94.1646,536.2236)"><path
               style="fill:#ffd700;fill-opacity:1;fill-rule:nonzero;stroke:none"
               id="path3252"
               d="m 0,0 h -8.104 l 0.541,4.434 9.626,3.468 z"
               inkscape:connector-curvature="0" /></g><g
             style="fill:#ffd700;fill-opacity:1"
             id="g3254"
             transform="translate(88.439,523.2188)"><path
               style="fill:#ffd700;fill-opacity:1;fill-rule:nonzero;stroke:none"
               id="path3256"
               d="m 0,0 -9.798,-0.254 5.157,8.463 h 8.157 z"
               inkscape:connector-curvature="0" /></g><g
             style="fill:#ffd700;fill-opacity:1"
             id="g3258"
             transform="translate(82.9873,516.374)"><path
               style="fill:#ffd700;fill-opacity:1;fill-rule:nonzero;stroke:none"
               id="path3260"
               d="m 0,0 -7.959,1.041 -5.988,-7.632 8.018,-1.918 z"
               inkscape:connector-curvature="0" /></g><g
             style="fill:#ffd700;fill-opacity:1"
             id="g3262"
             transform="translate(78.9614,542.9121)"><path
               style="fill:#ffd700;fill-opacity:1;fill-rule:nonzero;stroke:none"
               id="path3264"
               d="M 0,0 -9.921,-6.688 -7.197,2.862 0,5.724 Z"
               inkscape:connector-curvature="0" /></g></g></g></g></g><g
     id="g4213"><text
       sodipodi:linespacing="125%"
       id="text3423"
       y="925.49524"
       x="147.22044"
       style="font-size:40px;font-style:normal;font-weight:normal;line-height:125%;letter-spacing:0px;word-spacing:0px;fill:#000000;fill-opacity:1;stroke:none;font-family:Sans"
       xml:space="preserve"><tspan
         style="font-size:64px;fill:#ffffff;fill-opacity:1"
         id="tspan3427"
         y="925.49524"
         x="147.22044"
         sodipodi:role="line">This computer is reserved for OCF</tspan><tspan
         style="font-size:64px;fill:#ffffff;fill-opacity:1"
         id="tspan3431"
         y="975.49524"
         x="147.22044"
         sodipodi:role="line">volunteer staff members.</tspan></text>
<text
       sodipodi:linespacing="125%"
       id="text4209"
       y="1084.984"
       x="144.39629"
       style="font-size:40px;font-style:normal;font-weight:normal;line-height:125%;letter-spacing:0px;word-spacing:0px;fill:#000000;fill-opacity:1;stroke:none;font-family:Sans"
       xml:space="preserve"><tspan
         style="fill:#ffffff;fill-opacity:1"
         y="1084.984"
         x="144.39629"
         id="tspan4211"
         sodipodi:role="line">Seriously, you won't be able to log in here. Sorry!</tspan></text>
</g></svg>