<svg xmlns="http://www.w3.org/2000/svg" viewBox="0 0 145.36 162.09"><defs><style>.cls-1{fill:#0f4d92;}.cls-2{fill:#fff;}.cls-3{fill:none;stroke:#020202;stroke-miterlimit:5;stroke-width:1.25px;}.cls-4{fill:gold;}</style></defs><g id="Layer_2" data-name="Layer 2"><g id="Layer_1-2" data-name="Layer 1"><path class="cls-1" d="M86.24,121.46c3.79,1.56,5.35-6.09,9.39-12,2.15-3.17-7.71-2.74-12.92,1.07-1.06.77,3.53,11,3.53,11m13.85-22.85c3.88-9.42,8.75-14,18.71-20.9s17.87-9.52,22.87-12.62,4.69-4.63.49-6.83-5.74-5.82-11.74-2.8S106.7,68.33,99.26,76,88.62,87.79,85,93.31s17.81,6.4,17.81,6.4"/><path class="cls-1" d="M13.26,99.51C8.32,100.88,9.92,87.14,11,84.58S27.31,84,35.71,85,73.59,89.72,85,93.31c9.2,2.91,16.52,3.55,21.08,4.24A49.42,49.42,0,0,0,116.44,96c9.66-2.4,19.23,1.83,9.34,6.66s-2.39,4.65-14.38,5.57-24.82.43-28.25,2c0,0-12.35,2.65-21.7-3.39-3.28-2.11-40-9.6-48.19-7.32"/><path d="M3.42,103.24c-11.92,3.67,11.39,2.82,8.78,28.56,0,0-2.22,16,16.31,25.87,13.17,7,29,3.76,32.14,2.93,20-6.69,33.54-33.43,21.44-52,0,0-3.75,2.29-23.56-3.76S26.31,99,20.1,98.86c-8.85-.19-4.65.68-16.68,4.38"/><path class="cls-2" d="M40.41,126.1a10,10,0,1,1,5.42,13.2,10.09,10.09,0,0,1-5.42-13.2"/><path d="M48.35,131.13a3.23,3.23,0,1,1,1.81,4.08,3.15,3.15,0,0,1-1.81-4.08m-33-47.63c-1.69.17,0-33.58,13.88-52.6,9.92-13.61,14.63-19,26.43-23.31C59.05,6.35,61.75.73,61.75.73,83.46,6.32,90.09,10.54,102.38,17s9.3,12,12.49,15c4,3.79,9.39-1.36,20.19,7.38,15.34,12.42,2.42,12.9-.78,14.29C97.16,69.86,85,93.31,85,93.31,66.11,88,24.57,82.6,15.32,83.5"/><path class="cls-3" d="M15.32,83.5c-1.69.17,0-33.58,13.88-52.6,9.92-13.61,14.63-19,26.43-23.31C59.05,6.35,61.75.73,61.75.73,83.46,6.32,90.09,10.54,102.38,17s9.3,12,12.49,15c4,3.79,9.39-1.36,20.19,7.38,15.34,12.42,2.42,12.9-.78,14.29C97.16,69.86,85,93.31,85,93.31,66.11,88,24.57,82.6,15.32,83.5Z"/><path class="cls-2" d="M59.73,88.07c45.36-31.4,17.41-60.94-23.95-65.78,0,0-11.55,13-15.87,27.33-8,26.49-3.55,34.18-3.55,34.18,8.3-.26,43.37,4.27,43.37,4.27"/><path class="cls-4" d="M43.53,89.32l14.21,3.56-4.4,10.68-11.27-2.49ZM21.9,86.14l11.65,1.07L32.37,99.59,22.7,99l-.8-12.82ZM79.56,96.25l-12.23-2.7-2.57,12.08L75.13,108l4.43-11.77ZM12.41,86.61l4.88-.55-.73,13-2.95.54Zm86.1,21.15-9.86.25,2-9.44,12.08,1.14Zm-4.9-22.5L103,89.12,100.24,94l-12.78-.57,6.15-8.15ZM106.42,73l11.44,4.38-10,7.32-9.42-3.88,8-7.82ZM116,67.64l8.7,5,10.56-6-8.35-6-10.91,7Zm-8,32.59,14.65-3L115,107l-9.68-.12Z"/></g></g></svg>
